<svg xmlns="http://www.w3.org/2000/svg" width="14.667" height="20" viewBox="0 0 14.667 20">
  <g id="_35-Recipe_Book" data-name="35-Recipe Book" transform="translate(-10 -2)">
    <path id="Path_68240" data-name="Path 68240" d="M23.333,2H12a2,2,0,0,0-2,2V18a2,2,0,0,0,2,2H23.333a1.335,1.335,0,0,0,1.333-1.333V3.333A1.335,1.335,0,0,0,23.333,2Z" transform="translate(0)" fill="#fc6067"/>
    <path id="Path_68241" data-name="Path 68241" d="M24.666,44h-12.6a2.047,2.047,0,0,0-2.053,1.737A2,2,0,0,0,12,48H23.333a1.333,1.333,0,0,0,1.333-1.333Z" transform="translate(0 -28)" fill="#fb4b5b"/>
    <path id="Path_68242" data-name="Path 68242" d="M12,47.333a1.335,1.335,0,0,0,1.333,1.333H24.667A.667.667,0,0,0,25.333,48V46h-12A1.335,1.335,0,0,0,12,47.333Z" transform="translate(-1.334 -29.333)" fill="#e7eaef"/>
    <path id="Path_68243" data-name="Path 68243" d="M22,49H19.333a.333.333,0,0,0-.333.333V53a.333.333,0,0,0,.569.236l1.1-1.1,1.1,1.1A.333.333,0,0,0,22.333,53V49.333A.333.333,0,0,0,22,49Z" transform="translate(-6 -31.333)" fill="#fcb860"/>
    <path id="Path_68244" data-name="Path 68244" d="M19.982,19.667a.334.334,0,0,1-.333-.333V16.355l-.416-.169a2,2,0,0,1,1.005-3.832l.447.06.222-.393a2,2,0,0,1,3.483,0l.222.393.447-.06a2,2,0,0,1,1.005,3.832l-.416.169v2.979a.334.334,0,0,1-.333.333Z" transform="translate(-5.316 -6)" fill="#e7eaef"/>
    <g id="Group_46510" data-name="Group 46510" transform="translate(12 12.333)">
      <path id="Path_68245" data-name="Path 68245" d="M26.667,49.667H16.333a.333.333,0,0,1,0-.667H26.667a.333.333,0,0,1,0,.667Z" transform="translate(-16 -43.667)" fill="#d8dbe0"/>
      <path id="Path_68246" data-name="Path 68246" d="M23,33v1a.334.334,0,0,0,.333.333h5.333A.334.334,0,0,0,29,34V33Z" transform="translate(-20.667 -33)" fill="#d8dbe0"/>
    </g>
  </g>
</svg>
