<svg width="24" height="25" viewBox="0 0 24 25" fill="none" xmlns="http://www.w3.org/2000/svg">
<g clip-path="url(#clip0_699_210)">
<path d="M20.9956 3.6972C18.3518 3.6972 15.7888 2.78628 13.738 1.11786C12.7254 0.294047 11.2737 0.294047 10.2611 1.11786C8.21034 2.78633 5.64728 3.6972 3.00357 3.6972C2.17801 3.6972 1.50879 4.36642 1.50879 5.19198V9.19819C1.50879 14.3375 3.823 19.2037 7.80968 22.4471L9.04013 23.4482C10.7639 24.8506 13.2354 24.8506 14.9592 23.4482L16.1896 22.4471C20.1763 19.2037 22.4905 14.3373 22.4905 9.198C22.4905 7.65993 22.4905 6.21452 22.4905 5.19165C22.4904 4.36609 21.8212 3.6972 20.9956 3.6972Z" fill="#9A60EA"/>
<path d="M11.9995 23.1807C11.7113 23.1807 11.4295 23.0805 11.2059 22.8986L8.85251 20.984C7.13359 19.5855 5.72192 17.7885 4.77021 15.7873C3.81849 13.7862 3.31543 11.5571 3.31543 9.34113V6.16193C3.31543 5.77732 3.62988 5.45026 4.01397 5.42998C6.63312 5.29148 9.16522 4.32024 11.2059 2.66C11.4295 2.47807 11.7113 2.37793 11.9995 2.37793C12.2878 2.37793 12.5696 2.47807 12.7932 2.65995C14.8339 4.32024 17.3661 5.29148 19.9852 5.42998C20.3692 5.45026 20.6836 5.77727 20.6836 6.16184V9.34094C20.6836 11.5569 20.1806 13.786 19.2288 15.7872C18.2771 17.7885 16.8655 19.5855 15.1466 20.984L12.7932 22.8986C12.5696 23.0806 12.2878 23.1807 11.9995 23.1807Z" fill="#9A60EA"/>
<path d="M11.9991 22.3032C11.7352 22.3032 11.4771 22.2115 11.2724 22.0449L9.11764 20.2919C7.54376 19.0114 6.25124 17.3661 5.37985 15.5338C4.50846 13.7015 4.04785 11.6605 4.04785 9.63153V6.72061C4.04785 6.36847 4.33576 6.06904 4.68743 6.0504C7.08555 5.92358 9.40399 5.03431 11.2724 3.51417C11.4772 3.34762 11.7352 3.25586 11.9991 3.25586C12.263 3.25586 12.5211 3.34758 12.7257 3.51412C14.5943 5.03431 16.9127 5.92358 19.3109 6.0504C19.6625 6.06899 19.9503 6.36838 19.9503 6.72047V9.6313C19.9503 11.6603 19.4897 13.7013 18.6183 15.5336C17.747 17.366 16.4544 19.0114 14.8806 20.2919L12.7257 22.0449C12.5211 22.2115 12.263 22.3032 11.9991 22.3032Z" fill="#9A60EA"/>
<path d="M22.4908 5.19167C22.4908 4.36612 21.8216 3.69722 20.996 3.69722C18.3523 3.69722 15.7893 2.78631 13.7384 1.11788C13.2321 0.705976 12.6161 0.5 12 0.5V24.5C13.0488 24.5 14.0976 24.1494 14.9595 23.4482L16.19 22.4472C20.1766 19.2038 22.4908 14.3374 22.4909 9.19802C22.4908 7.65991 22.4908 6.21449 22.4908 5.19167Z" fill="#9A60EA"/>
<path d="M19.8311 7.48386C19.361 7.01374 18.5987 7.11012 18.1286 7.58024L12.2627 13.446C12.2055 13.5032 12.0439 13.6116 11.9993 13.6116C11.9547 13.6116 11.8895 13.5996 11.8323 13.5424L9.5838 11.2939C9.11363 10.8238 8.39956 10.8238 7.9294 11.2939C7.45924 11.764 7.41105 12.4299 7.88121 12.9001L16.8561 21.875C20.2033 18.8532 22.2199 14.628 22.4647 10.1265L19.8311 7.48386Z" fill="#8852D3"/>
<path d="M16.1895 22.4477C19.035 20.1327 21.0282 16.9908 21.9363 13.513L16.5111 8.08783C15.3788 6.89198 13.7764 6.24219 11.9996 6.24219C8.61419 6.24214 5.88374 8.97263 5.88379 12.358C5.88379 14.1348 6.53358 15.7372 7.72948 16.8695L14.2499 23.3899C14.4491 23.5891 14.7667 23.6053 14.9852 23.4276L16.1895 22.4477Z" fill="#8852D3"/>
<path d="M11.9992 18.5697C15.43 18.5697 18.2113 15.7884 18.2113 12.3576C18.2113 8.92676 15.43 6.14551 11.9992 6.14551C8.56836 6.14551 5.78711 8.92676 5.78711 12.3576C5.78711 15.7884 8.56836 18.5697 11.9992 18.5697Z" fill="#DCC2FF"/>
<path d="M17.0158 8.69336L12.2627 13.4463C12.2055 13.5035 12.0439 13.6119 11.9993 13.6119C11.9547 13.6119 11.8895 13.5999 11.8323 13.5427L9.5838 11.2942C9.11363 10.8241 8.39956 10.8241 7.9294 11.2942C7.45924 11.7644 7.41105 12.4303 7.88121 12.9004L13.3932 18.4124C16.1529 17.7797 18.2114 15.309 18.2114 12.3574C18.2114 10.9871 17.7673 9.72061 17.0158 8.69336Z" fill="url(#paint0_linear_699_210)" fill-opacity="0.36"/>
<path d="M12 15.9236C11.2938 15.9236 10.6298 15.6485 10.1304 15.1491L7.88192 12.9007C7.41176 12.4305 7.41176 11.6683 7.88192 11.1981C8.35204 10.728 9.1143 10.728 9.58451 11.1981L11.833 13.4466C11.8902 13.5038 11.9554 13.5158 12 13.5158C12.0447 13.5158 12.1099 13.5038 12.1671 13.4466L18.1293 7.48442C18.5994 7.01431 19.3617 7.01431 19.8319 7.48442C20.302 7.95459 20.302 8.71685 19.8319 9.18701L13.8697 15.1491C13.3703 15.6485 12.7063 15.9236 12 15.9236Z" fill="white"/>
<g clip-path="url(#clip1_699_210)">
<path d="M20.9956 4.1972C18.3518 4.1972 15.7888 3.28628 13.738 1.61786C12.7254 0.794047 11.2737 0.794047 10.2611 1.61786C8.21034 3.28633 5.64728 4.1972 3.00357 4.1972C2.17801 4.1972 1.50879 4.86642 1.50879 5.69198V9.69819C1.50879 14.8375 3.823 19.7037 7.80968 22.9471L9.04013 23.9482C10.7639 25.3506 13.2354 25.3506 14.9592 23.9482L16.1896 22.9471C20.1763 19.7037 22.4905 14.8373 22.4905 9.698C22.4905 8.15993 22.4905 6.71452 22.4905 5.69165C22.4904 4.86609 21.8212 4.1972 20.9956 4.1972Z" fill="#9A60EA"/>
<path d="M11.9995 23.6807C11.7113 23.6807 11.4295 23.5805 11.2059 23.3986L8.85251 21.484C7.13359 20.0855 5.72192 18.2885 4.77021 16.2873C3.81849 14.2862 3.31543 12.0571 3.31543 9.84113V6.66193C3.31543 6.27732 3.62988 5.95026 4.01397 5.92998C6.63312 5.79148 9.16522 4.82024 11.2059 3.16C11.4295 2.97807 11.7113 2.87793 11.9995 2.87793C12.2878 2.87793 12.5696 2.97807 12.7932 3.15995C14.8339 4.82024 17.3661 5.79148 19.9852 5.92998C20.3692 5.95026 20.6836 6.27727 20.6836 6.66184V9.84094C20.6836 12.0569 20.1806 14.286 19.2288 16.2872C18.2771 18.2885 16.8655 20.0855 15.1466 21.484L12.7932 23.3986C12.5696 23.5806 12.2878 23.6807 11.9995 23.6807Z" fill="#9A60EA"/>
<path d="M11.9991 22.8032C11.7352 22.8032 11.4771 22.7115 11.2724 22.5449L9.11764 20.7919C7.54376 19.5114 6.25124 17.8661 5.37985 16.0338C4.50846 14.2015 4.04785 12.1605 4.04785 10.1315V7.22061C4.04785 6.86847 4.33576 6.56904 4.68743 6.5504C7.08555 6.42358 9.40399 5.53431 11.2724 4.01417C11.4772 3.84762 11.7352 3.75586 11.9991 3.75586C12.263 3.75586 12.5211 3.84758 12.7257 4.01412C14.5943 5.53431 16.9127 6.42358 19.3109 6.5504C19.6625 6.56899 19.9503 6.86838 19.9503 7.22047V10.1313C19.9503 12.1603 19.4897 14.2013 18.6183 16.0336C17.747 17.866 16.4544 19.5114 14.8806 20.7919L12.7257 22.5449C12.5211 22.7115 12.263 22.8032 11.9991 22.8032Z" fill="#9A60EA"/>
<path d="M22.4908 5.69167C22.4908 4.86612 21.8216 4.19722 20.996 4.19722C18.3523 4.19722 15.7893 3.28631 13.7384 1.61788C13.2321 1.20598 12.6161 1 12 1V25C13.0488 25 14.0976 24.6494 14.9595 23.9482L16.19 22.9472C20.1766 19.7038 22.4908 14.8374 22.4909 9.69802C22.4908 8.15991 22.4908 6.71449 22.4908 5.69167Z" fill="#9A60EA"/>
<path d="M19.8311 7.98386C19.361 7.51374 18.5987 7.61012 18.1286 8.08024L12.2627 13.946C12.2055 14.0032 12.0439 14.1116 11.9993 14.1116C11.9547 14.1116 11.8895 14.0996 11.8323 14.0424L9.5838 11.7939C9.11363 11.3238 8.39956 11.3238 7.9294 11.7939C7.45924 12.264 7.41105 12.9299 7.88121 13.4001L16.8561 22.375C20.2033 19.3532 22.2199 15.128 22.4647 10.6265L19.8311 7.98386Z" fill="#8852D3"/>
<path d="M16.1895 22.9477C19.035 20.6327 21.0282 17.4908 21.9363 14.013L16.5111 8.58783C15.3788 7.39198 13.7764 6.74219 11.9996 6.74219C8.61419 6.74214 5.88374 9.47263 5.88379 12.858C5.88379 14.6348 6.53358 16.2372 7.72948 17.3695L14.2499 23.8899C14.4491 24.0891 14.7667 24.1053 14.9852 23.9276L16.1895 22.9477Z" fill="#8852D3"/>
<path d="M11.9992 19.0697C15.43 19.0697 18.2113 16.2884 18.2113 12.8576C18.2113 9.42676 15.43 6.64551 11.9992 6.64551C8.56836 6.64551 5.78711 9.42676 5.78711 12.8576C5.78711 16.2884 8.56836 19.0697 11.9992 19.0697Z" fill="#DCC2FF"/>
<path d="M17.0158 9.19336L12.2627 13.9463C12.2055 14.0035 12.0439 14.1119 11.9993 14.1119C11.9547 14.1119 11.8895 14.0999 11.8323 14.0427L9.5838 11.7942C9.11363 11.3241 8.39956 11.3241 7.9294 11.7942C7.45924 12.2644 7.41105 12.9303 7.88121 13.4004L13.3932 18.9124C16.1529 18.2797 18.2114 15.809 18.2114 12.8574C18.2114 11.4871 17.7673 10.2206 17.0158 9.19336Z" fill="#DCC2FF"/>
<path d="M12 16.4236C11.2938 16.4236 10.6298 16.1485 10.1304 15.6491L7.88192 13.4007C7.41176 12.9305 7.41176 12.1683 7.88192 11.6981C8.35204 11.228 9.1143 11.228 9.58451 11.6981L11.833 13.9466C11.8902 14.0038 11.9554 14.0158 12 14.0158C12.0447 14.0158 12.1099 14.0038 12.1671 13.9466L18.1293 7.98442C18.5994 7.51431 19.3617 7.51431 19.8319 7.98442C20.302 8.45459 20.302 9.21685 19.8319 9.68701L13.8697 15.6491C13.3703 16.1485 12.7063 16.4236 12 16.4236Z" fill="white"/>
</g>
</g>
<defs>
<linearGradient id="paint0_linear_699_210" x1="17.6457" y1="15.9942" x2="15.4192" y2="13.7676" gradientUnits="userSpaceOnUse">
<stop stop-color="#5E00BB" stop-opacity="0"/>
<stop offset="1" stop-color="#9A60EA"/>
</linearGradient>
<clipPath id="clip0_699_210">
<rect width="24" height="24" fill="white" transform="translate(0 0.5)"/>
</clipPath>
<clipPath id="clip1_699_210">
<rect width="24" height="24" fill="white" transform="translate(0 1)"/>
</clipPath>
</defs>
</svg>
